<svg xmlns="http://www.w3.org/2000/svg" xmlns:xlink="http://www.w3.org/1999/xlink" viewBox="0,0,256,256" width="50px" height="50px"><g fill="#0f2e3f" fill-rule="nonzero" stroke="none" stroke-width="1" stroke-linecap="butt" stroke-linejoin="miter" stroke-miterlimit="10" stroke-dasharray="" stroke-dashoffset="0" font-family="none" font-weight="none" font-size="none" text-anchor="none" style="mix-blend-mode: normal"><g transform="scale(2.56,2.56)"><path d="M71.986,83.825v-69.905h-43.972v69.905h-6.765v2.255h6.765h2.255h2.255h2.255h30.442h2.255h2.255h2.255h6.765v-2.255zM69.731,83.825h-2.255v-65.395h-34.952v65.395h-2.255v-67.65h39.463v67.65zM65.221,83.825h-22.646l18.604,-18.604l-1.594,-1.594l-20.199,20.198h-4.607v-63.14h9.117l-6.201,6.201l1.594,1.594l7.796,-7.796h18.137v45.197l-8.923,8.923l1.594,1.594l7.329,-7.329v14.756zM40.98,61.275h-2.255v-5.638h6.765v2.255h-4.51zM61.178,26.886l-20.198,20.198l-1.594,-1.594l20.198,-20.198zM56.201,36.567l1.595,1.594l-8.36,8.359l-1.594,-1.594zM48.309,67.009l1.594,1.594l-7.796,7.796l-1.594,-1.594z"></path></g></g></svg>