<svg xmlns="http://www.w3.org/2000/svg" xmlns:xlink="http://www.w3.org/1999/xlink" viewBox="0,0,256,256" width="32px" height="32px"><g fill="#0f2e3f" fill-rule="nonzero" stroke="none" stroke-width="1" stroke-linecap="butt" stroke-linejoin="miter" stroke-miterlimit="10" stroke-dasharray="" stroke-dashoffset="0" font-family="none" font-weight="none" font-size="none" text-anchor="none" style="mix-blend-mode: normal"><g transform="scale(8,8)"><path d="M29,28v-3.0033c0,-0.00104 0,-0.00201 0,-0.00305v-7.99695c0,-0.00104 0,-0.00201 0,-0.00305v-2.27197c0.59479,-0.34698 1,-0.98499 1,-1.72168c0,-1.10254 -0.89746,-2 -2,-2c-1.10254,0 -2,0.89746 -2,2c0,0.73669 0.40521,1.37469 1,1.72168v0.7785l-22,-9.16669v-0.61182c0.59479,-0.34698 1,-0.98499 1,-1.72168c0,-1.10254 -0.89746,-2 -2,-2c-1.10254,0 -2,0.89746 -2,2c0,0.73669 0.40521,1.37469 1,1.72168v1.28192c0,0 0,0.00165 0,0.00244v7.99756c0,0 0,0.00165 0,0.00244v3.99396h-1v10c0,0.55225 0.44769,1 1,1h26c0.55273,0 1,-0.44727 1,-1c0,-0.55273 -0.44727,-1 -1,-1zM27,23.50018l-1,-0.41669v-5.83368l1,0.41669zM8,15.5835v-5.83368l1,0.41669v5.83368zM11,10.99982l1,0.41669v5.83368l-1,-0.41669zM14,12.24982l1,0.41669v5.83368l-1,-0.41669zM17,13.49982l1,0.41669v5.83368l-1,-0.41669zM20,14.74982l1,0.41669v5.83368l-1,-0.41669zM23,15.99982l1,0.41669v5.83368l-1,-0.41669zM6,8.9165v5.83368l-1,-0.41669v-5.83368zM24,28v-2c0,-0.55231 -0.44769,-1 -1,-1h-6v-2c0,-0.55231 -0.44769,-1 -1,-1h-6v-2c0,-0.55231 -0.44769,-1 -1,-1h-4v-2.50018l22,9.16669v2.3335z"></path></g></g></svg>