<svg xmlns="http://www.w3.org/2000/svg" xmlns:xlink="http://www.w3.org/1999/xlink" viewBox="0,0,256,256" width="50px" height="50px"><g fill="#0f2e3f" fill-rule="nonzero" stroke="none" stroke-width="1" stroke-linecap="butt" stroke-linejoin="miter" stroke-miterlimit="10" stroke-dasharray="" stroke-dashoffset="0" font-family="none" font-weight="none" font-size="none" text-anchor="none" style="mix-blend-mode: normal"><g transform="scale(5.12,5.12)"><path d="M9.9375,0.53125l-0.71875,0.6875l-8,8l-0.6875,0.71875l0.6875,0.71875l15.625,15.625l-12.53125,12.53125c-0.12891,0.11719 -0.22656,0.26953 -0.28125,0.4375l-2,7.5c-0.08984,0.34375 0.01172,0.70703 0.26172,0.95703c0.25,0.25 0.61328,0.35156 0.95703,0.26172l7.5,-2c0.16797,-0.05469 0.32031,-0.15234 0.4375,-0.28125l34.5625,-34.5625c-0.00391,0.00391 0.8125,-0.8125 0.8125,-0.8125c1.90234,-1.90234 1.89844,-4.97656 0,-6.875c-1.90234,-1.90234 -4.97266,-1.89844 -6.875,0l-13.40625,13.40625l-15.625,-15.625zM9.9375,3.375l1.625,1.625l-1.28125,1.28125l1.4375,1.4375l1.28125,-1.28125l1.5625,1.5625l-2.28125,2.28125l1.4375,1.4375l2.28125,-2.28125l1.5625,1.5625l-1.28125,1.28125l1.4375,1.4375l1.28125,-1.28125l1.5625,1.5625l-2.28125,2.28125l1.4375,1.4375l2.28125,-2.28125l1.5625,1.5625l-1.28125,1.28125l1.28125,1.28125l-5.28125,5.28125l-14.90625,-14.90625zM40.28125,5.65625l4.0625,4.0625l-34.375,34.375l-4.0625,-4.0625zM34,24.59375l-0.71875,0.6875l-2,2l1.4375,1.4375l1.28125,-1.28125l1.5625,1.5625l-2.28125,2.28125l1.4375,1.4375l2.28125,-2.28125l1.5625,1.5625l-1.28125,1.28125l1.4375,1.4375l1.28125,-1.28125l1.5625,1.5625l-2.28125,2.28125l1.4375,1.4375l2.28125,-2.28125l1.5625,1.5625l-1.28125,1.28125l1.4375,1.4375l1.28125,-1.28125l0.625,0.625l-6.5625,6.5625l-14.0625,-14.03125l-1.40625,1.40625l14.75,14.78125l0.71875,0.6875l0.71875,-0.6875l8,-8l0.6875,-0.71875l-0.6875,-0.71875z"></path></g></g></svg>